<?xml version="1.0" encoding="UTF-8" standalone="no"?>
<svg
   width="38.889107mm"
   height="35.703423mm"
   version="1.1"
   style="clip-rule:evenodd;fill-rule:evenodd;image-rendering:optimizeQuality;shape-rendering:geometricPrecision;text-rendering:geometricPrecision"
   viewBox="0 0 75.319998 69.15"
   id="svg12"
   sodipodi:docname="instagram-3814047.svg"
   inkscape:version="1.1.2 (0a00cf5339, 2022-02-04)"
   xmlns:inkscape="http://www.inkscape.org/namespaces/inkscape"
   xmlns:sodipodi="http://sodipodi.sourceforge.net/DTD/sodipodi-0.dtd"
   xmlns="http://www.w3.org/2000/svg"
   xmlns:svg="http://www.w3.org/2000/svg">
  <sodipodi:namedview
     id="namedview14"
     pagecolor="#ffffff"
     bordercolor="#666666"
     borderopacity="1.0"
     inkscape:pageshadow="2"
     inkscape:pageopacity="0.0"
     inkscape:pagecheckerboard="0"
     inkscape:document-units="mm"
     showgrid="false"
     inkscape:zoom="2.3206018"
     inkscape:cx="73.472321"
     inkscape:cy="67.654865"
     inkscape:window-width="1920"
     inkscape:window-height="1011"
     inkscape:window-x="0"
     inkscape:window-y="0"
     inkscape:window-maximized="1"
     inkscape:current-layer="Camada_x0020_1" />
  <defs
     id="defs4">
    <style
       type="text/css"
       id="style2">  .fil0 {fill:#F0F0F0} .fil1 {fill:#011627;fill-rule:nonzero}  </style>
  </defs>
  <g
     id="Camada_x0020_1"
     inkscape:label="Camada 1"
     inkscape:groupmode="layer"
     transform="translate(-50.89,-53.98)">
    <metadata
       id="CorelCorpID_0Corel-Layer" />
    <path
       class="fil1"
       d="m 119.57,92.79 -29.86,29.86 c -0.64,0.64 -1.68,0.64 -2.32,0 L 57.53,92.79 C 53.1,88.36 50.89,82.53 50.89,76.7 c 0,-5.83 2.21,-11.66 6.64,-16.09 4.43,-4.42 10.26,-6.63 16.09,-6.63 5.33,0 10.67,1.85 14.93,5.55 4.26,-3.7 9.59,-5.55 14.93,-5.55 5.83,0 11.66,2.21 16.09,6.63 4.43,4.43 6.64,10.26 6.64,16.09 0,5.83 -2.21,11.66 -6.64,16.09 z m -31.02,26.38 28.7,-28.7 c 3.79,-3.79 5.68,-8.78 5.68,-13.77 0,-4.99 -1.89,-9.98 -5.68,-13.77 -3.78,-3.79 -8.78,-5.68 -13.77,-5.68 -4.99,0 -9.98,1.89 -13.77,5.68 -0.64,0.64 -1.68,0.64 -2.32,0 -3.78,-3.79 -8.78,-5.68 -13.77,-5.68 -4.99,0 -9.98,1.89 -13.77,5.68 -3.78,3.79 -5.68,8.78 -5.68,13.77 0,4.99 1.89,9.98 5.68,13.77 z"
       id="path9"
       style="fill:#c21a2d;fill-opacity:1" />
  </g>
</svg>
