<?xml version="1.0" encoding="UTF-8" standalone="no"?>
<svg
   width="32.901932mm"
   height="37.692764mm"
   version="1.1"
   style="clip-rule:evenodd;fill-rule:evenodd;image-rendering:optimizeQuality;shape-rendering:geometricPrecision;text-rendering:geometricPrecision"
   viewBox="0 0 59.139997 67.75134"
   id="svg12"
   sodipodi:docname="instagram-bookmark.svg"
   inkscape:version="1.1.2 (0a00cf5339, 2022-02-04)"
   xmlns:inkscape="http://www.inkscape.org/namespaces/inkscape"
   xmlns:sodipodi="http://sodipodi.sourceforge.net/DTD/sodipodi-0.dtd"
   xmlns="http://www.w3.org/2000/svg"
   xmlns:svg="http://www.w3.org/2000/svg">
  <sodipodi:namedview
     id="namedview14"
     pagecolor="#ffffff"
     bordercolor="#666666"
     borderopacity="1.0"
     inkscape:pageshadow="2"
     inkscape:pageopacity="0.0"
     inkscape:pagecheckerboard="0"
     inkscape:document-units="mm"
     showgrid="false"
     inkscape:zoom="2.3206018"
     inkscape:cx="61.837408"
     inkscape:cy="71.102246"
     inkscape:window-width="1920"
     inkscape:window-height="1011"
     inkscape:window-x="0"
     inkscape:window-y="0"
     inkscape:window-maximized="1"
     inkscape:current-layer="Camada_x0020_1" />
  <defs
     id="defs4">
    <style
       type="text/css"
       id="style2">  .fil0 {fill:#F0F0F0} .fil1 {fill:#011627;fill-rule:nonzero}  </style>
  </defs>
  <g
     id="Camada_x0020_1"
     inkscape:label="Camada 1"
     inkscape:groupmode="layer"
     transform="translate(-52.62,-48.3)">
    <metadata
       id="CorelCorpID_0Corel-Layer" />
    <path
       class="fil1"
       d="m 54.13,48.3 h 56.11 c 0.84,0 1.52,0.68 1.52,1.52 v 64.71 c 0,0.84 -0.68,1.52 -1.52,1.52 -0.42,0 -0.81,-0.17 -1.08,-0.45 L 82.19,92.31 55.13,115.68 c -0.63,0.55 -1.59,0.48 -2.14,-0.15 -0.25,-0.29 -0.37,-0.64 -0.37,-0.99 v 0 -64.71 c 0,-0.84 0.68,-1.52 1.52,-1.52 z m 28.05,3.04 H 55.65 v 59.87 L 81.18,89.16 c 0.56,-0.49 1.41,-0.51 2,-0.01 l 25.54,22.05 V 51.33 H 82.19 Z"
       id="path9"
       style="fill:#c21a2d;fill-opacity:1"
       inkscape:export-filename="/home/maxschalz/nuclearlu/raphaelsilva-instagram-icons/path9.png"
       inkscape:export-xdpi="172.92599"
       inkscape:export-ydpi="172.92599" />
  </g>
</svg>
