<?xml version="1.0" encoding="UTF-8" standalone="no"?>
<svg
   width="37.396946mm"
   height="37.815166mm"
   version="1.1"
   style="clip-rule:evenodd;fill-rule:evenodd;image-rendering:optimizeQuality;shape-rendering:geometricPrecision;text-rendering:geometricPrecision"
   viewBox="0 0 72.429997 73.240002"
   id="svg12"
   sodipodi:docname="instagram-3814056.svg"
   inkscape:version="1.1.2 (0a00cf5339, 2022-02-04)"
   xmlns:inkscape="http://www.inkscape.org/namespaces/inkscape"
   xmlns:sodipodi="http://sodipodi.sourceforge.net/DTD/sodipodi-0.dtd"
   xmlns="http://www.w3.org/2000/svg"
   xmlns:svg="http://www.w3.org/2000/svg">
  <sodipodi:namedview
     id="namedview14"
     pagecolor="#ffffff"
     bordercolor="#666666"
     borderopacity="1.0"
     inkscape:pageshadow="2"
     inkscape:pageopacity="0.0"
     inkscape:pagecheckerboard="0"
     inkscape:document-units="mm"
     showgrid="false"
     inkscape:zoom="2.3206018"
     inkscape:cx="36.412969"
     inkscape:cy="74.549628"
     inkscape:window-width="1920"
     inkscape:window-height="1011"
     inkscape:window-x="0"
     inkscape:window-y="0"
     inkscape:window-maximized="1"
     inkscape:current-layer="Camada_x0020_1" />
  <defs
     id="defs4">
    <style
       type="text/css"
       id="style2">  .fil0 {fill:#F0F0F0} .fil1 {fill:#011627;fill-rule:nonzero}  </style>
  </defs>
  <g
     id="Camada_x0020_1"
     inkscape:label="Camada 1"
     inkscape:groupmode="layer"
     transform="translate(-52.35,-51.94)">
    <metadata
       id="CorelCorpID_0Corel-Layer" />
    <path
       class="fil1"
       d="m 114.69,109.14 c -0.16,-0.35 -0.19,-0.72 -0.11,-1.06 v 0 l 0.01,-0.04 v 0 -0.02 l 0.02,-0.06 v 0 l 0.01,-0.04 0.01,-0.04 v 0 l 0.01,-0.03 v 0 l 0.01,-0.03 v -0.01 l 0.01,-0.03 v -0.01 l 0.01,-0.03 v -0.01 c 0.05,-0.1 0.11,-0.2 0.18,-0.29 2.06,-2.81 3.65,-5.91 4.72,-9.17 1.08,-3.28 1.64,-6.74 1.64,-10.25 0,-9.06 -3.67,-17.27 -9.61,-23.2 -5.94,-5.94 -14.14,-9.61 -23.2,-9.61 -9.06,0 -17.26,3.67 -23.2,9.61 -5.94,5.94 -9.61,14.14 -9.61,23.2 0,9.06 3.67,17.26 9.61,23.2 5.94,5.94 14.14,9.61 23.2,9.61 3.49,0 6.93,-0.55 10.19,-1.62 3.26,-1.06 6.35,-2.64 9.15,-4.68 0.09,-0.07 0.18,-0.12 0.27,-0.17 h 0.01 l 0.03,-0.01 h 0.01 l 0.03,-0.01 h 0.01 l 0.03,-0.01 c 0.06,-0.03 0.12,-0.05 0.19,-0.06 h 0.02 l 0.02,-0.01 h 0.02 0.02 v 0 l 0.03,-0.01 h 0.01 l 0.03,-0.01 v 0 h 0.02 0.02 0.02 c 0.3,-0.04 0.62,0 0.92,0.14 v 0 c 0.02,0.01 0.05,0.02 0.07,0.04 h 0.01 l 10.05,5.39 -4.91,-10.64 z m -5.79,8.61 c -2.86,1.97 -5.98,3.51 -9.25,4.58 -3.6,1.18 -7.38,1.79 -11.21,1.79 -9.97,0 -18.99,-4.04 -25.52,-10.57 -6.53,-6.53 -10.57,-15.56 -10.57,-25.52 0,-9.97 4.04,-18.99 10.57,-25.52 6.53,-6.53 15.55,-10.57 25.52,-10.57 9.97,0 18.99,4.04 25.52,10.57 6.53,6.53 10.57,15.55 10.57,25.52 0,3.84 -0.62,7.64 -1.8,11.26 -1.09,3.31 -2.65,6.46 -4.66,9.35 l 6.56,14.22 0.01,0.03 c 0.09,0.21 0.14,0.43 0.14,0.65 v 0.04 0.03 0.01 0.03 0.01 0.03 0.01 0.03 0.01 0.03 0.03 0 0.01 0.03 0.01 l -0.01,0.03 c -0.02,0.08 -0.04,0.15 -0.07,0.22 v 0 l -0.01,0.02 -0.01,0.02 v 0 l -0.01,0.03 v 0 l -0.01,0.02 v 0 c -0.02,0.04 -0.03,0.07 -0.05,0.11 v 0.01 l -0.02,0.03 c -0.09,0.16 -0.22,0.31 -0.36,0.44 l -0.02,0.02 -0.01,0.01 -0.02,0.02 -0.01,0.01 c -0.04,0.03 -0.09,0.06 -0.13,0.09 l -0.03,0.02 v 0 l -0.03,0.02 v 0 l -0.03,0.02 v 0 l -0.03,0.02 v 0 l -0.03,0.02 h -0.01 l -0.03,0.01 c -0.21,0.09 -0.43,0.14 -0.65,0.14 h -0.04 -0.03 -0.01 -0.03 -0.01 -0.03 -0.01 -0.03 -0.01 -0.03 -0.03 v 0 h -0.01 l -0.03,-0.01 h -0.01 l -0.03,-0.01 c -0.08,-0.02 -0.15,-0.04 -0.22,-0.07 v 0 l -0.02,-0.01 -0.02,-0.01 v 0 l -0.03,-0.02 v 0 l -0.02,-0.01 v 0 c -0.04,-0.02 -0.08,-0.04 -0.12,-0.06 l -13.45,-7.22 z"
       id="path9"
       style="fill:#c21a2d;fill-opacity:1" />
  </g>
</svg>
