<?xml version="1.0" encoding="UTF-8" standalone="no"?>
<svg
   width="43.365665mm"
   height="37.692444mm"
   version="1.1"
   style="clip-rule:evenodd;fill-rule:evenodd;image-rendering:optimizeQuality;shape-rendering:geometricPrecision;text-rendering:geometricPrecision"
   viewBox="0 0 87.37157 75.941369"
   id="svg12"
   sodipodi:docname="instagram-3814059.svg"
   inkscape:version="1.1.2 (0a00cf5339, 2022-02-04)"
   xmlns:inkscape="http://www.inkscape.org/namespaces/inkscape"
   xmlns:sodipodi="http://sodipodi.sourceforge.net/DTD/sodipodi-0.dtd"
   xmlns="http://www.w3.org/2000/svg"
   xmlns:svg="http://www.w3.org/2000/svg">
  <sodipodi:namedview
     id="namedview14"
     pagecolor="#ffffff"
     bordercolor="#666666"
     borderopacity="1.0"
     inkscape:pageshadow="2"
     inkscape:pageopacity="0.0"
     inkscape:pagecheckerboard="0"
     inkscape:document-units="mm"
     showgrid="false"
     inkscape:zoom="3.2818265"
     inkscape:cx="68.711737"
     inkscape:cy="34.127337"
     inkscape:window-width="1920"
     inkscape:window-height="1011"
     inkscape:window-x="0"
     inkscape:window-y="0"
     inkscape:window-maximized="1"
     inkscape:current-layer="Camada_x0020_1" />
  <defs
     id="defs4">
    <marker
       style="overflow:visible"
       id="Arrow1Lstart"
       refX="0.0"
       refY="0.0"
       orient="auto"
       inkscape:stockid="Arrow1Lstart"
       inkscape:isstock="true">
      <path
         transform="scale(0.8) translate(12.5,0)"
         style="fill-rule:evenodd;fill:context-stroke;stroke:context-stroke;stroke-width:1.0pt"
         d="M 0.0,0.0 L 5.0,-5.0 L -12.5,0.0 L 5.0,5.0 L 0.0,0.0 z "
         id="path843" />
    </marker>
    <style
       type="text/css"
       id="style2">  .fil0 {fill:#F0F0F0} .fil1 {fill:#011627;fill-rule:nonzero}  </style>
  </defs>
  <g
     id="Camada_x0020_1"
     inkscape:label="Camada 1"
     inkscape:groupmode="layer"
     transform="translate(-48.433619,-54.146694)">
    <metadata
       id="CorelCorpID_0Corel-Layer" />
    <path
       class="fil1"
       d="m 50.12,54.54 83.86,-0.39 c 0.33,-0.02 0.67,0.05 0.98,0.23 0.81,0.47 1.09,1.52 0.61,2.33 l -42.3,72.5 c -0.24,0.43 -0.67,0.76 -1.19,0.85 -0.93,0.17 -1.81,-0.45 -1.98,-1.38 L 82.42,85.67 49.04,57.53 c -0.72,-0.6 -0.81,-1.67 -0.21,-2.39 0.33,-0.4 0.81,-0.6 1.29,-0.61 z m 79.28,5.99 -43.52,25.13 6.77,37.86 z m -1.7,-2.95 -72.95,0.34 29.42,24.8 z"
       id="path9"
       style="fill:#c21a2d;fill-opacity:1;stroke-width:3.41703929;stroke-miterlimit:4;stroke-dasharray:none" />
  </g>
</svg>
